<?xml version="1.0" encoding="utf-8"?>
<!-- Generator: Adobe Illustrator 21.0.0, SVG Export Plug-In . SVG Version: 6.00 Build 0)  -->
<svg version="1.1" id="Calque_1" xmlns="http://www.w3.org/2000/svg" xmlns:xlink="http://www.w3.org/1999/xlink" x="0px" y="0px"
	 viewBox="0 0 871.2 651.1" style="enable-background:new 0 0 871.2 651.1;" xml:space="preserve">
<style type="text/css">
	.st0{fill:#A0616A;}
	.st1{fill:#2F2E41;}
	.st2{fill:#99CCFF;}
	.st3{fill:#F0F0F0;}
	.st4{fill:#FFFFFF;}
	.st5{fill:#E6E7E8;}
	.st6{fill:#E6E6E6;}
	.st7{fill:#CCCCCC;}
	.st8{fill:#CACACA;}
	.st9{fill:#3F3D56;}
	.st10{fill:#0033CC;}
	.st11{font-family:'TimesNewRomanPSMT';}
	.st12{font-size:25px;}
	.st13{letter-spacing:31;}
	.st14{font-size:22px;}
	.st15{font-family:'MyriadPro-Regular';}
	.st16{font-size:36px;}
</style>
<polygon class="st0" points="69.4,610 85,617.6 121.4,561 98.4,549.9 "/>
<path class="st1" d="M61,626l47.9,23.1l0.3-0.6c5-10.3,0.7-22.7-9.6-27.7l0,0L94,610l-19.5-1.2l-4.2-2L61,626z"/>
<polygon class="st0" points="185.4,631.1 202.7,631.1 210.9,564.4 185.4,564.4 "/>
<path class="st1" d="M184.8,649.2l53.2,0v-0.7c0-11.4-9.3-20.7-20.7-20.7h0l-9.7-7.4l-18.1,7.4l-4.6,0L184.8,649.2z"/>
<path class="st2" d="M202.5,321.6l19.8,136.7l-5.4,18l7.1,12.7l-10.4,95.9l4.2,9.3l-11.8,7.3h-24l-1.3-101.3l-5.9-14.9v-8.2
	l-12.1-61.8l-2.8,96.2l-3.9,7.4c-14.4,32.6-33.7,43.2-47.4,67.6l-24-13l0.5-9.7c-4.8-2.4,7.2-9.6,8.4-14.9l2.1-9.5l14-29l0.5-10.2
	l-3.8-69.5l1.8-93.5l31.5-24.1L202.5,321.6z"/>
<path class="st3" d="M269.4,130.3c2.7,9.8,6.9,19.1,12.5,27.5c12.5,18.9,30.3,33.3,50,44.9c1.4,0.8,2.7,1.6,4.1,2.4h13.8l0.5-1.1v0
	l0.6-1.3l0.1-0.1l0,0.1l0.6,2.4h6.8c0.6-0.8,1.1-1.6,1.7-2.4c0.8-1.2,1.5-2.4,2.3-3.5c1.3-2.1,2.4-4.3,3.4-6.5
	c0.1-0.3,0.2-0.5,0.3-0.8l-0.5-0.5l1.9-8.2l-3.8-0.6l4.1-12.7c-0.2-0.5-0.3-0.9-0.5-1.4c-2.3-5.9-6.7-10.2-11.8-13.9
	c-5.3-3.8-11.5-6.8-17.1-10c-2.7-1.5-5.3-3.1-7.8-4.7v0c-3.3-2.1-6.4-4.4-9.5-6.8c-0.1,0-0.1-0.1-0.1-0.1c0,0-0.1-0.1-0.1-0.1
	c-13.7-10.7-25.4-23.9-34.3-38.9c0,0,0,0,0,0v0c-0.3-0.5-0.6-1-0.9-1.4v0c-3.7-6.3-6.8-12.9-9.4-19.6v0c-0.2-0.5-0.4-1-0.6-1.5
	c-0.3,0.4-0.5,0.9-0.8,1.3c0,0,0,0,0,0v0C265,90,264.1,110.9,269.4,130.3z"/>
<path class="st4" d="M274.7,72.7c-0.1,9.3,0.9,18.5,2.9,27.5c0.9,4.1,2,8.2,3.4,12.2c2.6,7.9,6,15.4,10.1,22.6
	c0.2,0.4,0.5,0.8,0.7,1.1v0c1.8,3,3.7,5.9,5.8,8.7c3.1,4.4,7,8.3,11.4,11.5c3.6,2.4,7.7,4,12,4.6c0.8,0.1,1.6,0.3,2.5,0.4
	c3.3,0.4,6.7,0.5,10,1.2c1.7,0.3,3.3,0.8,4.8,1.5c5.3,2.5,8.3,7.6,9.5,13.1c0.2,1,0.4,1.9,0.5,2.9c1.1,7.5-0.1,15.2,0.5,22.6
	c0.1,0.8,0.2,1.6,0.3,2.4h0.7l0.5-1.1v0c0-0.4-0.1-0.8-0.1-1.3c-0.2-3.7-0.3-7.3-0.1-11c0-1.6,0.1-3.3,0.1-5c0-1.3-0.1-2.7-0.2-4v0
	c-0.1-0.8-0.2-1.6-0.3-2.4c-0.3-2.5-0.9-4.9-1.8-7.3c-1.8-4.9-5.5-8.8-10.3-10.7c-1.5-0.5-2.9-1-4.5-1.3c-3.3-0.6-6.8-0.8-10.2-1.2
	c-0.4,0-0.7-0.1-1.1-0.1c-0.5-0.1-0.9-0.1-1.3-0.2c-4.4-0.8-8.6-2.6-12.2-5.3c-4.3-3.4-8-7.4-11-11.9c-1.6-2.4-3.2-4.8-4.6-7.2
	c0,0,0,0,0,0h0c-0.1-0.1-0.1-0.2-0.2-0.4l0,0c-6.2-10.6-10.8-22.2-13.5-34.2c-0.1-0.4-0.2-0.9-0.3-1.3c-1.9-8.7-2.8-17.5-2.7-26.4v0
	c0-0.4,0-0.8,0-1.3c0-0.9-1.3-1.1-1.3-0.2C274.7,71.8,274.7,72.2,274.7,72.7C274.7,72.6,274.7,72.6,274.7,72.7L274.7,72.7z"/>
<path class="st4" d="M292.3,135.9c-7.9,4-17.5,1.7-22.7-5.4c-0.5-0.7,0.6-1.5,1.1-0.8c4.8,6.6,13.8,8.8,21.1,5
	C292.6,134.3,293.1,135.5,292.3,135.9z"/>
<path class="st4" d="M320.3,159.9c2.8-8.3,2.3-17.3-1.2-25.3c-0.4-0.8,0.9-1.3,1.2-0.5c3.7,8.3,4.1,17.7,1.2,26.3
	C321.3,161.2,320.1,160.7,320.3,159.9L320.3,159.9z"/>
<path class="st4" d="M278.3,99.4c3.3-0.9,6-3.4,7-6.7c0.3-0.8,1.5-0.3,1.2,0.5c-1.2,3.6-4.1,6.4-7.8,7.4c-0.3,0.1-0.7,0-0.9-0.4
	C277.8,99.9,278,99.5,278.3,99.4L278.3,99.4z"/>
<path class="st3" d="M330.4,139.9L330.4,139.9c0.3,7.2,1.2,14.3,2.7,21.3v0c0.1,0.5,0.2,1,0.3,1.4c2.4,10.8,5.8,21.4,10.1,31.6
	c1.2,2.9,2.4,5.7,3.7,8.5c0.4,0.8,0.7,1.6,1.1,2.4h1.5l0.5-1.1v0l0.6-1.3l0.1-0.1l0,0.1l0.6,2.4h14.3l2.8-2.4l4-3.5l-5.7-6.2l-0.9-1
	l-0.1-0.1l-0.5-0.5l1.9-8.2l-3.8-0.6l4.1-12.7l1.9-6l0.5-1.5l2.9-8.8l8.6,1.6l1.4-4.9c-2.6-6-4.7-12.1-6.4-18.4c0,0,0-0.1,0-0.1
	c-4.5-16.9-5.9-34.5-4-52v0c0.1-0.6,0.1-1.1,0.2-1.7v0c0.9-7.2,2.3-14.4,4.3-21.3c0.1-0.5,0.3-1.1,0.5-1.6c-0.5,0.2-0.9,0.4-1.4,0.6
	l0,0h0c-0.7,0.3-1.5,0.7-2.2,1c-17.1,8.3-29.6,23.9-36.7,41.8c0,0.1,0,0.1-0.1,0.1c-3.7,9.4-5.9,19.3-6.6,29.4
	C330.3,132,330.2,136,330.4,139.9z"/>
<path class="st4" d="M356.3,205.1h1.6c0.5-0.8,1-1.6,1.6-2.4c0.9-1.2,1.7-2.4,2.7-3.5c0.8-1,1.6-2,2.4-3c0.8-1,1.6-2.1,2.4-3.1
	l-0.9-1c-0.2,0.2-0.3,0.4-0.5,0.6c-2.6,3.4-5.3,6.6-7.7,10.1C357.3,203.5,356.8,204.3,356.3,205.1z"/>
<path class="st4" d="M377.8,55.7c-0.3,0.3-0.5,0.7-0.8,1c-2,2.5-3.8,5.1-5.5,7.8c-3.1,4.7-5.8,9.7-8.2,14.9
	c-0.2,0.4-0.4,0.8-0.6,1.2c-5.1,11.2-8.4,23.2-9.8,35.4c0,0.1,0,0.2,0,0.4c-0.3,2.9-0.5,5.7-0.6,8.6c-0.3,5.4,0.2,10.9,1.6,16.1
	c0.2,0.7,0.4,1.4,0.7,2c0.6,1.6,1.4,3.2,2.3,4.6c0.6,1.1,1.4,2.1,2.1,3.1c0.5,0.6,1,1.2,1.5,1.8c0.3,0.3,0.6,0.7,0.9,1
	c0.3,0.3,0.5,0.5,0.8,0.8c2.7,2.6,5.7,5,8.1,7.9l-0.5,1.5c-2.3-3-5.4-5.5-8.1-8c-1.7-1.6-3.3-3.4-4.7-5.3c-0.2-0.3-0.4-0.5-0.5-0.8
	c-0.9-1.4-1.7-2.8-2.4-4.3c-0.3-0.8-0.7-1.5-0.9-2.3c-1.6-5.2-2.4-10.6-2.2-16c0-3.5,0.2-6.9,0.6-10.4c0-0.4,0.1-0.9,0.2-1.3
	c1-8.2,2.9-16.3,5.5-24.1c3.4-9.9,8-19.4,13.8-28.2c1.7-2.5,3.4-5,5.3-7.4c0.2-0.3,0.5-0.6,0.8-1C377.4,54.1,378.3,55,377.8,55.7z"
	/>
<path class="st4" d="M352,116.9c-8.7-1.5-15-9.2-14.9-18c0-0.4,0.3-0.7,0.7-0.7c0.4,0,0.6,0.3,0.7,0.6c-0.1,8.2,5.8,15.3,13.9,16.7
	C353.2,115.7,352.9,117,352,116.9L352,116.9z"/>
<path class="st4" d="M359.9,152.9c7.2-4.9,12.3-12.4,14.2-20.9c0.2-0.8,1.5-0.5,1.3,0.3c-2,8.9-7.3,16.6-14.9,21.7
	C359.9,154.6,359.2,153.4,359.9,152.9z"/>
<path class="st4" d="M362.9,79.3c3.2,1.3,6.8,0.9,9.6-1.1c0.7-0.5,1.4,0.7,0.7,1.2c-3.1,2.1-7.1,2.6-10.6,1.2
	c-0.4-0.1-0.6-0.5-0.5-0.8C362.1,79.4,362.5,79.2,362.9,79.3L362.9,79.3z"/>
<circle class="st2" cx="356.7" cy="176.9" r="37.2"/>
<path class="st5" d="M867.5,144.2h-445c-2,0-3.6-1.6-3.6-3.6c0-2,1.6-3.6,3.6-3.6h445c2,0,3.6,1.6,3.6,3.6
	C871.2,142.6,869.5,144.2,867.5,144.2z"/>
<path class="st5" d="M867.5,166.5h-445c-2,0-3.6-1.6-3.6-3.6c0-2,1.6-3.6,3.6-3.6h445c2,0,3.6,1.6,3.6,3.6
	C871.2,164.8,869.5,166.5,867.5,166.5z"/>
<path class="st5" d="M720.4,188.7H422.5c-2,0-3.6-1.6-3.6-3.6c0-2,1.6-3.6,3.6-3.6h297.9c2,0,3.6,1.6,3.6,3.6
	C724,187.1,722.4,188.7,720.4,188.7z"/>
<circle class="st6" cx="356.7" cy="308.4" r="37.2"/>
<path class="st5" d="M867.5,265.8h-445c-2,0-3.6-1.6-3.6-3.6s1.6-3.6,3.6-3.6h445c2,0,3.6,1.6,3.6,3.6S869.5,265.8,867.5,265.8z"/>
<path class="st5" d="M867.5,288.1h-445c-2,0-3.6-1.6-3.6-3.6c0-2,1.6-3.6,3.6-3.6h445c2,0,3.6,1.6,3.6,3.6
	C871.2,286.5,869.5,288.1,867.5,288.1z"/>
<path class="st5" d="M720.4,310.3H422.5c-2,0-3.6-1.6-3.6-3.6c0-2,1.6-3.6,3.6-3.6h297.9c2,0,3.6,1.6,3.6,3.6
	C724,308.7,722.4,310.3,720.4,310.3z"/>
<circle class="st2" cx="356.7" cy="439.8" r="37.2"/>
<circle class="st2" cx="362" cy="549.9" r="37.2"/>
<path class="st5" d="M867.5,416.4h-445c-2,0-3.6-1.6-3.6-3.6s1.6-3.6,3.6-3.6h445c2,0,3.6,1.6,3.6,3.6S869.5,416.4,867.5,416.4z"/>
<path class="st5" d="M867.5,438.7h-445c-2,0-3.6-1.6-3.6-3.6c0-2,1.6-3.6,3.6-3.6h445c2,0,3.6,1.6,3.6,3.6
	C871.2,437.1,869.5,438.7,867.5,438.7z"/>
<path class="st5" d="M720.4,460.9H422.5c-2,0-3.6-1.6-3.6-3.6c0-2,1.6-3.6,3.6-3.6h297.9c2,0,3.6,1.6,3.6,3.6
	C724,459.3,722.4,460.9,720.4,460.9z"/>
<path class="st0" d="M239.2,348.6c5.1-4.3,5.8-12,1.5-17.1c-0.5-0.5-1-1.1-1.5-1.5l-4.2-98.5L220.4,204l-15.6-3l3.6,45.2l13.1,86
	c-4,5.4-2.8,13.1,2.6,17.1C228.6,352.4,234.9,352.2,239.2,348.6z"/>
<circle class="st0" cx="172.4" cy="96.5" r="31.2"/>
<path class="st6" d="M176.7,346.8c-41.1,0-71.9-15.5-72.4-15.7l-0.4-0.2l0.1-0.4c1.1-3.9,2.1-10.3,0.3-11.3c-0.4-0.2-0.7-0.5-0.8-1
	c-0.1-0.8,0.7-1.5,1.7-2.5c2.1-1.9,5-4.5,3.3-8.7c-3-7.4,5.4-45.3,5.9-47.7l-3.6-60.4c-1.3-23.8,14.2-45.2,37.2-51.4l0.1,0l0.1,0
	c1.2,0.1,2.4-3.9,3.3-6.7c1.4-4.2,2.3-6.9,3.8-6.7c12,0.8,19.9,1.3,25.2,1.6c10.1,0.6,11.8,12.9,12,14.8
	c22.2,13.5,33.2,39.8,27.3,65.2l-5,21.6l-4.4,10.4l1.5,20.5c6.9,5.7,4.9,17.4,4.5,19.4c6.6,6.8,2.5,14.8,1.6,16.4
	c3.4,4.2,4.5,9.8,2.9,14.9l6,19.6l-0.5,0.2C210.4,344.1,193.6,346.9,176.7,346.8z"/>
<path class="st6" d="M202.6,239.1L183,201.4l13.5-36.1l0.3,0c10.7-1.8,21.4,3.2,27,12.4c4.4,7.3,7.5,15.2,9.2,23.6
	c4.4,23.4,5.9,28.1,5.9,28.2l0.2,0.5L202.6,239.1z"/>
<circle class="st2" cx="220.7" cy="312.6" r="37.2"/>
<path class="st0" d="M185.2,351.2c-6.4-2.1-9.9-8.9-7.8-15.3c0.2-0.7,0.5-1.3,0.8-2l-32.8-93l3.3-30.9l13.4-8.7l13.5,43.2l19.9,84.7
	c5.7,3.6,7.5,11.1,3.9,16.8C196.5,350.9,190.6,353,185.2,351.2L185.2,351.2z"/>
<polygon class="st6" points="127.8,177.5 158.8,165.5 176.8,225.5 135.3,238.7 "/>
<path class="st1" d="M145.9,116.1c-0.4,0-0.8-0.1-1.1-0.2c-1.4-0.6-2.6-1.7-3.4-3c-5.5-7.9-8.2-18.5-7.9-31.5
	c0.1-5.5,0.7-12.5,4.6-18.1c3.2-4.7,9.8-8.4,15.8-6.6c-0.3-2.4,1.3-4.9,3.3-6.1c2.3-1.4,5.1-1.7,7.5-1.9c6.2-0.6,12.6-1.2,18.8,0
	c7,1.3,12.8,4.9,15.7,9.9l0.1,0.2l0.6,2.9c0.3,1.5,1.8,2.5,3.3,2.2c0.1,0,0.3-0.1,0.4-0.1c1.3-0.5,2.8,0.2,3.3,1.5
	c0.2,0.4,0.2,0.8,0.1,1.3l-0.2,1.2l1.8-0.3c1.4-0.3,2.7,0.7,3,2c0.1,0.5,0,0.9-0.1,1.3l-0.5,1.3c0.7,0,1.4,0.3,1.9,0.9
	c0.7,0.8,0.9,2,0.3,2.9c-2,3.4-4.8,6.2-8.1,8.2c-1.8,1.1-3.8,1.9-5.9,2.3c-13.6,2.9-27.6,3.4-41.4,1.2c0.8,2.7,1.1,5.6,0.9,8.4
	c-0.4,3.5-2.5,6.4-5.3,7.4c-0.6,0.2-1.3,0.4-1.9,0.5c-0.6,0.1-1.2,0.2-1.8,0.4c-2.8,1-4.2,4.1-3.2,6.9c0.3,0.9,0.9,1.7,1.6,2.3
	l1.4-1.4L149,114c-0.2,0.7-0.7,1.3-1.3,1.6C147.1,116,146.6,116.1,145.9,116.1z"/>
<path class="st7" d="M282.7,649.9c0,0.7-0.5,1.2-1.2,1.2c0,0,0,0,0,0H1.2c-0.7,0-1.2-0.5-1.2-1.2s0.5-1.2,1.2-1.2h280.3
	C282.1,648.7,282.7,649.2,282.7,649.9C282.7,649.9,282.7,649.9,282.7,649.9z"/>
<path class="st8" d="M870.2,36.6H320.9c-0.6,0-1-0.5-1-1c0-0.5,0.4-1,1-1h549.3c0.6,0,1,0.5,1,1C871.2,36.1,870.7,36.5,870.2,36.6z"
	/>
<ellipse class="st9" cx="343.2" cy="11.2" rx="10.9" ry="11.2"/>
<ellipse class="st9" cx="381" cy="11.2" rx="10.9" ry="11.2"/>
<ellipse class="st9" cx="418.7" cy="11.2" rx="10.9" ry="11.2"/>
<path class="st9" d="M847.6,6.8h-26.8c-1.1,0-2-1-2-2.1c0-1.1,0.9-2,2-2h26.8c1.1,0,2,1,2,2.1C849.5,5.9,848.7,6.8,847.6,6.8z"/>
<path class="st9" d="M847.6,14.4h-26.8c-1.1,0-2-1-2-2.1c0-1.1,0.9-2,2-2h26.8c1.1,0,2,1,2,2.1C849.5,13.5,848.7,14.4,847.6,14.4z"
	/>
<path class="st9" d="M847.6,22.1h-26.8c-1.1,0-2-1-2-2.1c0-1.1,0.9-2,2-2h26.8c1.1,0,2,1,2,2.1C849.5,21.2,848.7,22,847.6,22.1z"/>
<rect x="414.1" y="132.2" class="st2" width="441.4" height="59.8"/>
<rect x="416.1" y="254.5" class="st2" width="441.4" height="59.8"/>
<rect x="410.9" y="396.6" class="st2" width="441.4" height="59.8"/>
<rect x="410.9" y="515.3" class="st2" width="441.4" height="59.8"/>
<text transform="matrix(1 0 0 1 457.013 156.8418)"><tspan x="0" y="0" class="st10 st11 st12">Make  sure that your are connected </tspan><tspan x="0" y="30" class="st10 st11 st12 st13">	</tspan></text>
<text transform="matrix(1 0 0 1 465.013 281.5242)" class="st10 st11 st12">Make a record with your celphone </text>
<text transform="matrix(1 0 0 1 480.665 419.787)"><tspan x="0" y="0" class="st10 st11 st12">upload  your video meditation </tspan><tspan x="0" y="30" class="st10 st11 st12">     </tspan><tspan x="31.3" y="30" class="st10 st11 st12">	</tspan></text>
<text transform="matrix(1 0 0 1 435.1465 549.0449)" class="st10 st11 st14">After  response go in your account to check</text>
<text transform="matrix(1 0 0 1 345.0122 187.5199)" class="st10 st15 st16">1</text>
<text transform="matrix(1 0 0 1 213.5845 323.2556)" class="st10 st15 st16">2</text>
<text transform="matrix(1 0 0 1 345.0122 452.8422)" class="st10 st15 st16">3</text>
<text transform="matrix(1 0 0 1 352.8598 556.4215)" class="st10 st15 st16">4</text>
<text transform="matrix(1 0 0 1 510.1952 185.4449)" class="st10 st11 st12">to internet befor logging</text>
<text transform="matrix(1 0 0 1 448 308.3172)" class="st10 st11 st12">   or click on  button to make record</text>
<text transform="matrix(1 0 0 1 538 449.1862)" class="st10 st11 st12">in wait few minute</text>
</svg>
