<svg id="Calque_1" data-name="Calque 1" xmlns="http://www.w3.org/2000/svg" viewBox="0 0 871.18 651.08"><defs><style>.cls-1{fill:#a0616a;}.cls-2{fill:#2f2e41;}.cls-3{fill:#6c63ff;}.cls-4{fill:#f0f0f0;}.cls-5{fill:#fff;}.cls-6{fill:#e6e7e8;}.cls-7{fill:#e6e6e6;}.cls-8{fill:#ccc;}.cls-9{fill:#cacaca;}.cls-10{fill:#3f3d56;}.cls-11{fill:#175ce5;}.cls-12,.cls-16,.cls-17{font-size:25px;}.cls-12{fill:#f4f4f9;}.cls-12,.cls-16,.cls-17,.cls-19{font-family:TimesNewRomanPS-BoldMT, Times New Roman;font-weight:700;}.cls-13{letter-spacing:-0.02em;}.cls-14{letter-spacing:0em;}.cls-15{letter-spacing:1.24em;}.cls-16{fill:#f7f7f9;}.cls-17{fill:#f9f9f9;}.cls-18{letter-spacing:-0.01em;}.cls-19{font-size:22px;fill:#f7f7fc;}.cls-20{letter-spacing:-0.02em;}.cls-21,.cls-22{font-size:36px;font-family:MyriadPro-Regular, Myriad Pro;}.cls-21{fill:#f4f2f2;}.cls-22{fill:#f9f7f7;}.cls-23{letter-spacing:-0.02em;}</style></defs><title>menuimagedetails2</title><polygon class="cls-1" points="69.39 610.04 84.98 617.57 121.41 561.04 98.41 549.93 69.39 610.04"/><path class="cls-2" d="M61,626l47.92,23.13.29-.61a20.71,20.71,0,0,0-9.65-27.66h0L94,610,74.48,608.8l-4.18-2Z" transform="translate(0 0)"/><polygon class="cls-1" points="185.39 631.12 202.7 631.12 210.93 564.37 185.39 564.37 185.39 631.12"/><path class="cls-2" d="M184.78,649.17H238v-.67a20.71,20.71,0,0,0-20.71-20.71h0l-9.72-7.37-18.14,7.38h-4.65Z" transform="translate(0 0)"/><path class="cls-3" d="M202.54,321.56,222.37,458.3l-5.4,18L224.06,489l-10.4,95.91,4.22,9.29-11.79,7.27h-24L180.81,500.2l-5.93-14.88v-8.2l-12.07-61.78L160,511.52,156.18,519c-14.35,32.56-33.68,43.22-47.35,67.56l-24-13,.5-9.7c-4.82-2.44,7.24-9.58,8.4-14.85l2.1-9.45,14-29,.53-10.21-3.83-69.46,1.8-93.54,31.48-24.07Z" transform="translate(0 0)"/><path class="cls-4" d="M269.42,130.32a96.9,96.9,0,0,0,12.51,27.53c12.48,18.87,30.34,33.3,50,44.85,1.36.81,2.74,1.6,4.12,2.38h13.77l.48-1.1h0l.56-1.27.07-.15,0,.15.55,2.38h6.76c.56-.79,1.11-1.58,1.65-2.38.79-1.17,1.55-2.35,2.27-3.55a57.63,57.63,0,0,0,3.4-6.52c.12-.25.22-.5.32-.75l-.45-.49,1.87-8.18-3.76-.62,4.12-12.71c-.15-.47-.32-.94-.5-1.41-2.31-5.85-6.65-10.22-11.8-13.89s-11.47-6.83-17.14-10c-2.66-1.49-5.28-3.06-7.83-4.72h0q-4.89-3.17-9.49-6.77l-.15-.11-.12-.1A140.9,140.9,0,0,1,286.32,94h0c-.3-.48-.58-1-.86-1.45h0A136.26,136.26,0,0,1,276,72.83h0c-.2-.5-.38-1-.57-1.5q-.39.66-.75,1.32h0C265,90,264.09,110.9,269.42,130.32Z" transform="translate(0 0)"/><path class="cls-5" d="M274.71,72.65a121.36,121.36,0,0,0,2.87,27.54,118.54,118.54,0,0,0,3.36,12.24A121.35,121.35,0,0,0,291.07,135c.23.39.45.77.69,1.15h0a102.34,102.34,0,0,0,5.75,8.66,47.72,47.72,0,0,0,11.4,11.46,30.09,30.09,0,0,0,12,4.63c.8.15,1.62.26,2.45.36,3.31.39,6.73.54,10,1.24a21.85,21.85,0,0,1,4.82,1.55c5.28,2.45,8.25,7.58,9.55,13.06.23,1,.41,1.93.55,2.9,1.09,7.45-.11,15.19.51,22.65.07.79.16,1.59.27,2.38h.74l.48-1.1h0c0-.42-.09-.84-.13-1.27a96.29,96.29,0,0,1-.09-11c0-1.65.07-3.31.05-5,0-1.33-.07-2.66-.17-4h0c-.07-.82-.15-1.63-.26-2.44a31.58,31.58,0,0,0-1.82-7.25,18.15,18.15,0,0,0-10.32-10.68,27,27,0,0,0-4.47-1.25c-3.35-.64-6.81-.8-10.18-1.22-.36,0-.72-.09-1.07-.15l-1.33-.23a28.67,28.67,0,0,1-12.16-5.27,51.9,51.9,0,0,1-11-11.92c-1.64-2.35-3.2-4.75-4.65-7.22h0l-.21-.35v0A119.57,119.57,0,0,1,279,100.55c-.09-.44-.19-.88-.29-1.32A120.89,120.89,0,0,1,276,72.83h0c0-.42,0-.83,0-1.25,0-.86-1.31-1.05-1.33-.19,0,.42,0,.84,0,1.26h0Z" transform="translate(0 0)"/><path class="cls-5" d="M292.33,135.91a18,18,0,0,1-22.69-5.42c-.51-.7.55-1.52,1.06-.82a16.68,16.68,0,0,0,21.12,5C292.59,134.27,293.09,135.52,292.33,135.91Z" transform="translate(0 0)"/><path class="cls-5" d="M320.35,159.91a34.73,34.73,0,0,0-1.23-25.28c-.35-.79.89-1.3,1.24-.51a36.12,36.12,0,0,1,1.23,26.31c-.28.82-1.52.3-1.24-.52Z" transform="translate(0 0)"/><path class="cls-5" d="M278.32,99.35a10.2,10.2,0,0,0,7-6.66c.27-.82,1.51-.3,1.24.52a11.43,11.43,0,0,1-7.75,7.38.69.69,0,0,1-.88-.37.68.68,0,0,1,.37-.88Z" transform="translate(0 0)"/><path class="cls-4" d="M330.39,139.86h0a131.24,131.24,0,0,0,2.67,21.24h0c.08.48.19,1,.29,1.42a184.5,184.5,0,0,0,10.11,31.61q1.78,4.32,3.74,8.55c.36.8.73,1.59,1.11,2.38h1.48l.48-1.1h0l.56-1.27.07-.15,0,.15.55,2.38h14.3l2.78-2.38,4-3.47-5.66-6.18-.93-1-.14-.15-.45-.49,1.87-8.18-3.76-.62,4.12-12.71,1.95-6,.49-1.51,2.85-8.79,8.6,1.61,1.4-4.9a136,136,0,0,1-6.42-18.41s0-.09,0-.14a141.58,141.58,0,0,1-4-52h0c.06-.56.13-1.13.21-1.68v0A133.63,133.63,0,0,1,377,56.72c.14-.53.3-1.05.45-1.57l-1.37.59h0c-.73.32-1.46.66-2.17,1-17.06,8.29-29.61,23.85-36.74,41.79l-.06.14a96.39,96.39,0,0,0-6.57,29.43A114.86,114.86,0,0,0,330.39,139.86Z" transform="translate(0 0)"/><path class="cls-5" d="M356.34,205.08h1.58c.5-.81,1-1.6,1.58-2.38q1.29-1.81,2.66-3.55l2.37-3c.82-1,1.63-2.06,2.42-3.12l-.93-1-.46.6c-2.56,3.37-5.33,6.61-7.7,10.07C357.33,203.48,356.82,204.27,356.34,205.08Z" transform="translate(0 0)"/><path class="cls-5" d="M377.78,55.71c-.26.33-.53.67-.78,1q-2.93,3.8-5.53,7.83a118,118,0,0,0-8.22,14.85c-.19.4-.38.81-.56,1.22a119.26,119.26,0,0,0-9.84,35.44c0,.12,0,.23,0,.35q-.49,4.29-.64,8.61a51.78,51.78,0,0,0,1.59,16.12c.2.69.42,1.37.66,2a27.35,27.35,0,0,0,2.25,4.65,27.92,27.92,0,0,0,2.14,3.09c.47.6,1,1.19,1.48,1.76l.92,1,.77.76c2.7,2.62,5.68,5,8.12,7.94l-.49,1.51c-2.35-3-5.38-5.45-8.11-8a37.89,37.89,0,0,1-4.66-5.28c-.18-.26-.37-.52-.54-.79a26.75,26.75,0,0,1-2.39-4.29c-.34-.75-.65-1.52-.93-2.32a47.89,47.89,0,0,1-2.2-16,103.41,103.41,0,0,1,.62-10.39c0-.45.09-.89.15-1.34a122.59,122.59,0,0,1,19.28-52.32q2.48-3.76,5.25-7.35c.24-.33.49-.65.75-1C377.36,54.08,378.31,55,377.78,55.71Z" transform="translate(0 0)"/><path class="cls-5" d="M352,116.88a18,18,0,0,1-14.86-18,.67.67,0,0,1,1.34,0,16.68,16.68,0,0,0,13.86,16.7c.85.15.51,1.45-.34,1.3Z" transform="translate(0 0)"/><path class="cls-5" d="M359.95,152.91A34.73,34.73,0,0,0,374.19,132c.19-.84,1.49-.5,1.3.34a36.12,36.12,0,0,1-14.86,21.74C359.91,154.56,359.24,153.39,359.95,152.91Z" transform="translate(0 0)"/><path class="cls-5" d="M362.85,79.26a10.2,10.2,0,0,0,9.62-1.09c.71-.5,1.38.67.68,1.16a11.43,11.43,0,0,1-10.64,1.23.69.69,0,0,1-.48-.82.68.68,0,0,1,.82-.48Z" transform="translate(0 0)"/><circle class="cls-3" cx="356.74" cy="176.87" r="37.16"/><path class="cls-6" d="M867.55,144.21h-445a3.62,3.62,0,1,1,0-7.25h445a3.62,3.62,0,1,1,0,7.25Z" transform="translate(0 0)"/><path class="cls-6" d="M867.55,166.45h-445a3.62,3.62,0,1,1,0-7.25h445a3.62,3.62,0,1,1,0,7.25Z" transform="translate(0 0)"/><path class="cls-6" d="M720.42,188.69H422.53a3.62,3.62,0,1,1,0-7.25H720.42a3.62,3.62,0,0,1,0,7.25Z" transform="translate(0 0)"/><circle class="cls-7" cx="356.74" cy="308.36" r="37.16"/><path class="cls-6" d="M867.55,265.84h-445a3.62,3.62,0,0,1,0-7.25h445a3.62,3.62,0,1,1,0,7.25Z" transform="translate(0 0)"/><path class="cls-6" d="M867.55,288.08h-445a3.62,3.62,0,1,1,0-7.25h445a3.62,3.62,0,1,1,0,7.25Z" transform="translate(0 0)"/><path class="cls-6" d="M720.42,310.32H422.53a3.62,3.62,0,1,1,0-7.25H720.42a3.62,3.62,0,0,1,0,7.25Z" transform="translate(0 0)"/><circle class="cls-3" cx="356.74" cy="439.84" r="37.16"/><circle class="cls-3" cx="362.01" cy="549.93" r="37.16"/><path class="cls-6" d="M867.55,416.45h-445a3.62,3.62,0,1,1,0-7.25h445a3.62,3.62,0,1,1,0,7.25Z" transform="translate(0 0)"/><path class="cls-6" d="M867.55,438.69h-445a3.62,3.62,0,0,1,0-7.25h445a3.62,3.62,0,0,1,0,7.25Z" transform="translate(0 0)"/><path class="cls-6" d="M720.42,460.93H422.53a3.62,3.62,0,1,1,0-7.25H720.42a3.62,3.62,0,0,1,0,7.25Z" transform="translate(0 0)"/><path class="cls-1" d="M239.18,348.57a12.14,12.14,0,0,0,0-18.61L235,231.46,220.37,204l-15.64-3,3.6,45.16,13.11,86a12.2,12.2,0,0,0,17.74,16.52Z" transform="translate(0 0)"/><circle class="cls-1" cx="172.39" cy="96.52" r="31.18"/><path class="cls-7" d="M176.68,346.8c-41.11,0-71.94-15.48-72.36-15.7l-.37-.19.11-.39c1.1-3.86,2.15-10.35.26-11.29a1.3,1.3,0,0,1-.81-1c-.11-.78.67-1.49,1.75-2.47,2.09-1.91,5-4.52,3.27-8.72-3-7.4,5.36-45.31,5.9-47.74l-3.55-60.43A50.27,50.27,0,0,1,148,147.54l.08,0h.08c1.16.06,2.38-3.86,3.31-6.73,1.37-4.25,2.28-6.85,3.82-6.74,12,.77,19.92,1.28,25.23,1.61,10.07.63,11.83,12.87,12,14.82a60.23,60.23,0,0,1,27.3,65.17l-5,21.57-4.43,10.37L211.93,268c6.88,5.72,4.91,17.42,4.51,19.39,6.55,6.78,2.53,14.76,1.55,16.45a16,16,0,0,1,2.88,14.9l6,19.61-.46.16A150.65,150.65,0,0,1,176.68,346.8Z" transform="translate(0 0)"/><path class="cls-7" d="M202.61,239.09,183,201.42l13.54-36.12.29,0a26.51,26.51,0,0,1,27,12.45,72.59,72.59,0,0,1,9.17,23.58c4.38,23.39,5.91,28.11,5.92,28.15l.17.51Z" transform="translate(0 0)"/><circle class="cls-3" cx="220.74" cy="312.63" r="37.16"/><path class="cls-1" d="M185.22,351.24a12.14,12.14,0,0,1-7-17.27l-32.78-93,3.28-30.94,13.37-8.66,13.5,43.24,19.88,84.66a12.2,12.2,0,0,1-10.3,21.94Z" transform="translate(0 0)"/><polygon class="cls-7" points="127.83 177.52 158.83 165.52 176.83 225.52 135.28 238.68 127.83 177.52"/><path class="cls-2" d="M145.95,116.12a3.51,3.51,0,0,1-1.13-.18,7.42,7.42,0,0,1-3.42-3c-5.53-7.95-8.19-18.55-7.93-31.5.11-5.48.73-12.49,4.57-18.07,3.23-4.7,9.75-8.42,15.84-6.55-.33-2.44,1.32-4.87,3.28-6.07,2.3-1.41,5.08-1.67,7.52-1.9,6.18-.58,12.57-1.18,18.82,0,7,1.33,12.75,4.95,15.74,9.92l.06.16.61,2.95a2.8,2.8,0,0,0,3.73,2.06A2.54,2.54,0,0,1,207,66.63l-.17,1.17,1.76-.33a2.54,2.54,0,0,1,2.85,3.38L211,72.2a2.67,2.67,0,0,1,1.94.86,2.46,2.46,0,0,1,.33,2.89,23,23,0,0,1-8.13,8.18,19.21,19.21,0,0,1-5.94,2.34,114.1,114.1,0,0,1-41.39,1.24,23.34,23.34,0,0,1,.93,8.38c-.44,3.53-2.52,6.45-5.29,7.43a12.76,12.76,0,0,1-1.93.47,11.33,11.33,0,0,0-1.84.45,5.4,5.4,0,0,0-1.58,9.22l1.37-1.42L149,114a2.6,2.6,0,0,1-1.32,1.65A3.64,3.64,0,0,1,145.95,116.12Z" transform="translate(0 0)"/><path class="cls-8" d="M282.67,649.89a1.19,1.19,0,0,1-1.18,1.19H1.19a1.19,1.19,0,0,1,0-2.38H281.48a1.19,1.19,0,0,1,1.19,1.18Z" transform="translate(0 0)"/><path class="cls-9" d="M870.18,36.55H320.86a1,1,0,0,1,0-2H870.18a1,1,0,0,1,0,2Z" transform="translate(0 0)"/><ellipse class="cls-10" cx="343.22" cy="11.17" rx="10.93" ry="11.17"/><ellipse class="cls-10" cx="380.96" cy="11.17" rx="10.93" ry="11.17"/><ellipse class="cls-10" cx="418.7" cy="11.17" rx="10.93" ry="11.17"/><path class="cls-10" d="M847.57,6.83H820.75a2,2,0,0,1,0-4.06h26.82a2,2,0,0,1,0,4.06Z" transform="translate(0 0)"/><path class="cls-10" d="M847.57,14.45H820.75a2,2,0,0,1,0-4.06h26.82a2,2,0,0,1,0,4.06Z" transform="translate(0 0)"/><path class="cls-10" d="M847.57,22.06H820.75a2,2,0,0,1,0-4.06h26.82a2,2,0,0,1,0,4.06Z" transform="translate(0 0)"/><rect class="cls-11" x="414.05" y="132.19" width="441.41" height="59.84"/><rect class="cls-11" x="416.09" y="254.54" width="441.41" height="59.84"/><rect class="cls-11" x="410.91" y="396.6" width="441.41" height="59.84"/><rect class="cls-11" x="410.87" y="515.33" width="441.41" height="59.84"/><text class="cls-12" transform="translate(457.01 156.84)"><tspan xml:space="preserve">Make  su</tspan><tspan class="cls-13" x="97.23" y="0">r</tspan><tspan x="107.87" y="0">e that you</tspan><tspan class="cls-13" x="213.43" y="0">r</tspan><tspan x="224.07" y="0" xml:space="preserve"> a</tspan><tspan class="cls-13" x="242.82" y="0">r</tspan><tspan class="cls-14" x="253.47" y="0">e connected </tspan><tspan class="cls-15"><tspan x="0" y="30">	</tspan></tspan></text><text class="cls-16" transform="translate(465.01 281.52)">Make a <tspan class="cls-13" x="86.1" y="0">r</tspan><tspan class="cls-14" x="96.74" y="0">ecord with you</tspan><tspan class="cls-13" x="255.07" y="0">r</tspan><tspan x="265.71" y="0" xml:space="preserve"> celphone </tspan></text><text class="cls-17" transform="translate(480.67 419.79)"><tspan xml:space="preserve">upload  you</tspan><tspan class="cls-13" x="125.06" y="0">r</tspan><tspan x="135.71" y="0" xml:space="preserve"> video meditation </tspan><tspan x="0" y="30" xml:space="preserve">     </tspan><tspan class="cls-18" x="31.25" y="30">	</tspan></text><text class="cls-19" transform="translate(435.15 549.04)">Afte<tspan class="cls-20" x="40.3" y="0">r</tspan><tspan x="49.67" y="0" xml:space="preserve">  </tspan><tspan class="cls-20" x="60.67" y="0">r</tspan><tspan x="70.04" y="0">esponse go in you</tspan><tspan class="cls-20" x="233.25" y="0">r</tspan><tspan x="242.61" y="0" xml:space="preserve"> account to check</tspan></text><text class="cls-21" transform="translate(345.01 187.52)">1</text><text class="cls-22" transform="translate(213.58 323.26)">2</text><text class="cls-22" transform="translate(345.01 452.84)">3</text><text class="cls-22" transform="translate(352.86 556.42)">4</text><text class="cls-12" transform="translate(510.2 185.44)">to internet befo<tspan class="cls-23" x="163.84" y="0">r</tspan><tspan x="174.49" y="0" xml:space="preserve"> logging</tspan></text><text class="cls-16" transform="translate(448 308.32)"><tspan xml:space="preserve">   o</tspan><tspan class="cls-20" x="31.25" y="0">r</tspan><tspan x="41.89" y="0" xml:space="preserve"> click on  button to make </tspan><tspan class="cls-20" x="312.05" y="0">r</tspan><tspan x="322.69" y="0">ecord</tspan></text><text class="cls-17" transform="translate(538 449.19)">in wait few minute</text></svg>