<?xml version="1.0" encoding="utf-8"?>
<!-- Generator: Adobe Illustrator 21.0.0, SVG Export Plug-In . SVG Version: 6.00 Build 0)  -->
<svg version="1.1" id="Calque_1" xmlns="http://www.w3.org/2000/svg" xmlns:xlink="http://www.w3.org/1999/xlink" x="0px" y="0px"
	 viewBox="0 0 1118 826.5" style="enable-background:new 0 0 1118 826.5;" xml:space="preserve">
<style type="text/css">
	.st0{opacity:0.1;fill:#6C63FF;enable-background:new    ;}
	.st1{opacity:0.5;fill:#6C63FF;enable-background:new    ;}
	.st2{fill:url(#SVGID_1_);}
	.st3{fill:#65617D;}
	.st4{opacity:0.1;enable-background:new    ;}
	.st5{fill:#FBBEBE;}
	.st6{fill:#E7EFFD;}
	.st7{fill:#3F3D56;}
	.st8{fill:#5F5D7E;}
	.st9{fill:#6C63FF;}
	.st10{fill:#7C5C5C;}
	.st11{opacity:0.1;}
	.st12{fill:#E6E8EC;}
	.st13{fill:#FFFFFF;}
	.st14{opacity:0.12;enable-background:new    ;}
	.st15{opacity:0.2;enable-background:new    ;}
	.st16{fill:#FFD037;}
</style>
<title>startled</title>
<ellipse class="st0" cx="741.3" cy="764.2" rx="314.1" ry="31.7"/>
<path class="st0" d="M649.6,116.2c-71.7-2.1-139.9-21.3-205.1-42.4S314.7,29.4,244.7,18.2C199.7,11,148.3,10,112,30.1
	c-34.9,19.3-46.2,52.7-52.2,83.6c-4.6,23.3-7.2,47.8,5.2,69.6c8.7,15.1,24.1,27.9,34.7,42.4c37.1,50.5,10.9,112.7-29.3,161.9
	c-18.8,23.1-40.7,45.2-55.2,69.8C0.7,482-6,510.2,6.7,535.3c12.6,24.9,42.7,43.5,75.2,56.7c66.1,26.7,144,34.3,220,38.7
	c168.1,9.6,337.1,5.4,505.7,1.3c62.4-1.5,125-3.1,186.4-11.1c34.1-4.5,69.3-11.5,94-28.6c31.4-21.7,39.2-58.4,18.2-85.6
	c-35.3-45.6-132.9-57-157.6-105.9c-13.6-27,0.4-57,20.1-82c42.3-53.6,113.3-100.7,117.1-162c2.6-42.1-31.6-84.3-84.3-104.2
	c-55.3-20.9-132-18.3-172.8,16.3C786.7,104.4,712.9,118.1,649.6,116.2z"/>
<path class="st1" d="M172.3,626.2c-7.9-3.5-1.2-41.9,16-101l0,0c11-37.9,26.4-84.4,45-135.7c1.3-3.7,2.7-7.4,4.1-11.1
	c1.5-4.2,3.1-8.4,4.7-12.6l0.1-0.4c0.2-0.6,0.5-1.2,0.7-1.8c6-16,12.2-32.4,18.7-49.1c0.1-0.3,0.3-0.7,0.4-1l0.3-0.9
	c1.6-4,3.1-8,4.7-12.1c0.2-0.4,0.3-0.9,0.5-1.3c0.2-0.6,0.5-1.2,0.7-1.7c0.1-0.2,0.1-0.4,0.2-0.5c0.1-0.4,0.3-0.7,0.4-1
	c1.6-4,3.2-8,4.8-12c2.6-6.5,5.2-12.9,7.7-19.2c0.4-1.1,0.9-2.2,1.4-3.3c1.3-3.2,2.6-6.4,3.9-9.5c0.5-1.2,1-2.4,1.5-3.6
	c0.4-0.9,0.8-1.8,1.1-2.7c4.1-9.8,8.1-19.5,12.1-28.9c0,0,0-0.1,0-0.1c15.3-35.9,30-68.9,43.7-97.8c0.1-0.1,0.1-0.3,0.2-0.5l1.5-3.1
	c35.2-73.7,62.8-119.2,72.2-115c9.6,4.3-2.4,60.1-28.6,142.3c-0.3,1.1-0.7,2.2-1,3.3c-0.1,0.2-0.1,0.4-0.2,0.6
	c-1.3,4.3-2.7,8.6-4.2,13c-0.1,0.3-0.2,0.5-0.3,0.8c-3.3,10.2-6.9,20.7-10.6,31.6c-0.5,1.5-1,2.9-1.5,4.4
	c-5.8,16.8-12,34.3-18.6,52.3l0,0c-0.4,1.1-0.8,2.2-1.2,3.3l0,0c-6.6,18-13.7,36.6-21,55.6l0,0c-0.5,1.2-0.9,2.4-1.4,3.6l0,0
	c-0.1,0.3-0.2,0.5-0.3,0.8c-1.8,4.7-3.7,9.4-5.5,14.2c-0.5,1.3-1,2.6-1.6,4c-1.3,3.4-2.6,6.7-4,10c-0.1,0.3-0.2,0.6-0.4,0.9
	s-0.2,0.5-0.3,0.7c-0.2,0.6-0.5,1.1-0.7,1.7c-0.6,1.5-1.2,3.1-1.9,4.6c-1.1,2.7-2.1,5.3-3.2,8l-0.3,0.8l0,0c0,0,0,0.1,0,0.1
	c-4.3,10.7-8.7,21.3-13,31.7l0,0c-1.5,3.5-2.9,7-4.4,10.4l0,0c-1.1,2.5-2.1,5.1-3.2,7.6c-7.9,18.8-15.7,36.7-23.3,53.8l0,0
	C222,563.2,183.6,631.3,172.3,626.2z"/>
<path class="st1" d="M191.1,554.8c-4.9-2.1,1.2-29.4,14.9-71.8l0,0c8.8-27.2,20.8-60.6,35-97.5l3.1-8c1.2-3,2.4-6,3.6-9.1
	c0-0.1,0.1-0.2,0.1-0.3l0.5-1.3c4.5-11.6,9.3-23.4,14.2-35.4c0.1-0.3,0.2-0.5,0.3-0.7s0.2-0.4,0.3-0.6c1.2-2.9,2.4-5.8,3.6-8.7
	l0.4-0.9l0.5-1.3c0.1-0.1,0.1-0.3,0.2-0.4s0.2-0.5,0.3-0.7c1.2-2.9,2.4-5.8,3.6-8.7c2-4.7,3.9-9.3,5.8-13.9l1-2.4
	c1-2.3,1.9-4.6,2.9-6.9l1.1-2.6c0.3-0.7,0.6-1.3,0.8-2c3-7.1,6.1-14,9.1-20.9c0,0,0,0,0-0.1c11.4-26,22.4-49.9,32.4-70.8
	c0.1-0.1,0.1-0.2,0.2-0.3l1.1-2.2c25.9-53.5,45.6-86.7,51.4-84.3c5.9,2.6-4.3,42.4-24.9,101.4l-0.8,2.3c0,0.1-0.1,0.3-0.2,0.4
	c-1.1,3.1-2.2,6.2-3.3,9.3l-0.2,0.6c-2.6,7.3-5.4,14.9-8.3,22.7c-0.4,1.1-0.8,2.1-1.2,3.2c-4.5,12.1-9.3,24.7-14.3,37.6l0,0
	l-0.9,2.4l0,0c-5.1,13-10.4,26.4-16,40.1l0,0c-0.4,0.9-0.7,1.7-1.1,2.6l0,0c-0.1,0.2-0.2,0.4-0.2,0.6l-4.2,10.2l-1.2,2.9
	c-1,2.4-2,4.8-3,7.2c-0.1,0.2-0.2,0.4-0.3,0.6s-0.1,0.3-0.2,0.5l-0.5,1.2c-0.5,1.1-0.9,2.2-1.4,3.4l-2.3,5.8l-0.3,0.6l0,0v0.1
	c-3.3,7.8-6.5,15.4-9.8,22.9l0,0c-1.1,2.5-2.2,5-3.3,7.5c-1.6,3.7,0,0,0,0c-0.8,1.9-1.6,3.7-2.4,5.5c-5.9,13.6-11.8,26.6-17.4,38.9
	l0,0C225.7,508.2,198.1,557.8,191.1,554.8z"/>
<linearGradient id="SVGID_1_" gradientUnits="userSpaceOnUse" x1="279.6014" y1="-39.9617" x2="279.6014" y2="486.8222" gradientTransform="matrix(0.8874 0.461 0.461 -0.8874 39.2913 405.062)">
	<stop  offset="0" style="stop-color:#808080;stop-opacity:0.25"/>
	<stop  offset="0.54" style="stop-color:#808080;stop-opacity:0.12"/>
	<stop  offset="1" style="stop-color:#808080;stop-opacity:0.1"/>
</linearGradient>
<path class="st2" d="M512.8,352.5c0-2.8-2.7-1.4-3.1-1.2l0,0c-1.1-0.9-2.3-1.7-3.6-2.3c-6.1-3.2-15.3-5.1-22.6-6.2c0,0-0.1,0-0.1,0
	c-6.5-1-11.4-1.3-11.4-1.3l-3.8,0h-1.4c0.5-0.7,1.2-1.3,2.1-1.6c1.1-0.1-4.5-0.5-7.1-0.7l0,0h-0.1l-1.2-0.1
	c-5.8,1.4-16.6-6.1-16.6-6.1l-1.3-6.3c4.3-4.6,3.7-16.2,3.7-16.2s0.4-3.9,4-9.2s-0.6-8.7-0.6-8.7l6.3-6.7c-0.5-2.3-0.1-4.8,1.1-6.8
	l0,0c0.4-0.6,0.9-1.1,1.4-1.5v0l0.1-0.1c4.1-3.1,7.6-14.1,7.6-14.1s-0.8-2,3.7-7.2V256c0.6-0.7,1.3-1.5,2.1-2.3l0,0
	c0-0.1,0.1-0.1,0.2-0.2c7.2-7.2,4.4-11.2,4.4-11.2l-8.8-10.7c2.1-3.5-14.5-28.3-14.5-28.3s-2.1-5.1-0.9-10c0.3-1.2,0.4-2.4,0.1-3.5
	c-0.2-0.7-0.5-1.3-0.9-1.8c-0.3-0.3-0.6-0.5-1-0.7l-0.6-0.1l0.7-0.5c0.3-0.2,0.6-0.4,0.9-0.6c0.6,0.2,1.2,0.4,1.9,0.6
	c12.4,4,26,1.4,36.1-6.9c0.3-0.2,0.5-0.4,0.7-0.6s0.6-0.5,0.9-0.8c0.1-0.1,0.3-0.3,0.4-0.4s0.5-0.5,0.7-0.7c0.1,0.2,0.1,0.4,0.2,0.6
	c0.3,0.9,0.7,1.7,1.1,2.6c0,0.1,0.1,0.2,0.1,0.2c0,0,0,0.1,0,0.1c0.1,0.1,0.2,0.3,0.2,0.4c0.6,1,1.3,1.8,2.1,2.6
	c0.2,0.2,0.4,0.4,0.6,0.5c0.3,0.3,0.6,0.5,1,0.7c0.1,0,0.1,0.1,0.2,0.1c0.1,0,0.1,0.1,0.2,0.1l0,0c0.3-0.5,0.5-0.9,0.8-1.4
	c2.1-4.1,3.4-8.7,3.6-13.3c0-0.6,0.1-1.1,0.1-1.7c0.1-0.4,0.2-0.8,0.4-1.2c0.4-0.8,1-1.4,1.7-1.8c1.2-0.6,2.5-1.1,3.8-1.4l0.3-0.1
	l0.4-0.1l0.7-0.3l0.1-0.1c0.2-0.1,0.4-0.2,0.6-0.3c0.1,0,0.1-0.1,0.2-0.1c0.2-0.1,0.5-0.3,0.7-0.5l0.1-0.1l0,0
	c0.2-0.1,0.4-0.3,0.5-0.5c0.1-0.1,0.1-0.2,0.2-0.3c0.1-0.1,0.2-0.3,0.3-0.4l0.2-0.4c0.1-0.1,0.1-0.2,0.2-0.3c0.8-1.6,1.1-3.3,1-5
	c-0.1-2.5-0.9-4.9-0.8-7.4c0.1-5.9,4.4-11.6,4-17.5c-0.3-5.1-4.1-9.1-8-12.3s-8.2-6.1-10.3-10.7c-1.6-3.4-1.8-7.4-3.2-10.9
	c-3-7.3-11.8-11.4-19.8-9.2c-4.8,1.3-8.9,4.5-13.5,6.2c-3.1,1.1-6.3,1.7-9.3,2.8c-3.6,1.4-6.8,3.6-9.4,6.5c-0.5,0.5-0.9,1-1.3,1.6
	l-0.4,0.5c-0.3,0.4-0.6,0.8-0.8,1.2c-0.1,0.2-0.2,0.4-0.3,0.5c-0.4,0.6-0.7,1.2-1,1.8c-0.3,0.6-0.5,1.1-0.8,1.7
	c-1.4,3.4-2.3,6.9-3.9,10.1c-0.4,0.7-0.8,1.4-1.3,2.1l0,0c-0.6,0.9-1.4,1.8-2.1,2.7c-0.2,0.2-0.4,0.5-0.6,0.7
	c-0.1,0.1-0.2,0.2-0.3,0.3c-0.1,0.2-0.3,0.4-0.5,0.6s-0.2,0.2-0.3,0.3s-0.3,0.4-0.4,0.6s-0.1,0.2-0.2,0.3c-0.2,0.3-0.4,0.6-0.6,0.9
	v0.1c-0.6,1.1-0.9,2.3-0.9,3.5c0,0.6,0.1,1.2,0.3,1.8c0,0.1,0.1,0.3,0.2,0.4c0.2,0.3,0.3,0.6,0.6,0.9c-0.1,0.3-0.3,0.7-0.4,1
	c-0.3,0.8-0.5,1.5-0.7,2.3c-0.1,0.5-0.3,1-0.4,1.6l0,0c-0.5,2-0.8,4.1-0.9,6.2l0,0l-0.6,0.3c-1.1,0.6-2.3,1.1-3.5,1.5l0,0h-0.1
	c-1,0.2-7.9,1.7-10.3,1.2l-8.6-1.5c0,0-2-0.8-4.2-1.9c-1.7-0.7-3.2-1.7-4.6-2.8c-1.6-1.8-13.1-9.1-15.5-9.1c-1-0.2-1.9-0.6-2.5-1.4
	c-0.7-0.9-1.4-1.8-2-2.8c0,0-0.2-0.1-0.6-0.3c-0.5-0.6-0.7-1.1-0.7-1.1s-3.4-1.9-6.8-4l-1.5,3c-0.1,0.1-0.1,0.3-0.2,0.5
	c-13.9,28.7-29.1,61.5-45,97.1c0,0,0,0.1,0,0.1c-4.2,9.3-8.4,18.9-12.6,28.6l-1.2,2.7l-1.6,3.6l-4.1,9.4l-1.4,3.3
	c-2.7,6.3-5.4,12.6-8.2,19c-1.7,3.9-3.4,7.9-5.1,11.9c-0.1,0.3-0.3,0.7-0.4,1c-0.1,0.2-0.1,0.4-0.2,0.5c-0.2,0.6-0.5,1.1-0.7,1.7
	c-0.2,0.4-0.4,0.9-0.5,1.3c-1.7,4-3.4,8-5,11.9l-0.8,0.4l0.4,0.5c-0.1,0.3-0.3,0.6-0.4,1c-6.9,16.5-13.6,32.6-20,48.5l-0.7,1.8
	l-0.1,0.4c-1.7,4.2-3.4,8.3-5,12.5c-1.5,3.7-2.9,7.3-4.4,10.9c-20.1,50.5-37.1,96.1-49.8,133.2c-0.6,0.4-1.2,0.9-1.9,1.4
	c0.6-0.5,1.3-1,1.9-1.3c0.5-0.3,1-0.7,1.6-0.9c1.2-0.6,2.3-1.4,3.2-2.3c0.4-0.4,0.9-0.8,1.3-1.2c2.3-2.6,4.5-5.4,6.4-8.4
	c0.3-0.4,0.6-0.7,1-1l0.5-0.5l0.1-0.1c0.3-0.3,0.6-0.5,0.9-0.8l0.1,0l0.5-0.4l0.1,0l0.6-0.5c1.7-1.4,3.8-3,5.8-4.6l0.7-0.5l2.4-1.9
	l1.2-0.9l2.6-2l0,0l0,0l0,0l0,0l0,0c0,0,0.1-0.1,0.1-0.1c0.2-0.3,0.8-1,1.6-2c0,0,0,0,0.1,0c0.1-0.1,0.2-0.2,0.3-0.4
	c1.1-1.2,2.4-2.8,4-4.3c0.2-0.2,0.4-0.4,0.6-0.6l0.6-0.5l0,0l0.9-0.8c0.9-0.8,1.9-1.6,2.9-2.3c1.3-0.9,2.5-1.9,3.7-3l0.3-0.2
	c0.2-0.2,0.4-0.3,0.6-0.5c0.1-0.1,0.3-0.3,0.4-0.4l0.4-0.4l0.7-0.7l0.5-0.4l1.1-1l1.2-1.2l0.2-0.2c0.6-0.6,1.2-1.3,1.9-1.9l0.7-0.7
	c0.3-0.3,0.6-0.6,0.9-0.9c0.5-0.5,1-1,1.5-1.5l1.1-1.2c0.4-0.4,0.7-0.8,1.1-1.1c0.5-0.6,1.1-1.1,1.6-1.6l0.1-0.1l1.3-1.3
	c0,0,0,0,0.1-0.1c0.3-0.3,0.6-0.6,0.8-0.9l0,0l0.3-0.3c0.3-0.2,0.5-0.5,0.7-0.7c0.8-0.8,1.2-1.3,1.2-1.3l9-10.3l9.2-10.7l0.4-0.5
	c0,0,2.3-3.5,4.7-6.4l0.3-0.4c0.8-1,1.7-2,2.7-2.8c0.8-0.7,1.5-1.4,2.2-2.2c0,0,0.1-0.1,0.1-0.2c2.7-3.2,6.2-8.1,7.3-9.7l0.4-0.5
	c0.9-0.8,1.8-1.6,2.6-2.6c0.9-1.1,1.7-2.3,2.2-3.6c0.5-1.2,1.2-2.3,2-3.4c0,0,0,0,0,0l0.2-0.2l0.6-0.7l0,0c0.7,0.1,1.4,0.2,2.1,0.3
	c3.3,0.1,6.6-0.3,9.7-1.2c0.1,0,0.2-0.1,0.3-0.1l0,0c0.8-0.2,1.4-0.4,1.8-0.5l0.3-0.1l6.2-9.1l0,0l0.1-0.2c0,0,3.3-3.1,6.4-6.4
	c0.3-0.4,0.7-0.7,1-1.1c2.2-2.4,4.2-4.8,4.6-6.1c1-3.1,6.5-9.5,6.5-9.5s9.5-12.1,13.1-16.6c0.1-0.2,0.3-0.4,0.4-0.5l0,0l0.5-0.6
	c0.1,0.1,0.2,0.2,0.3,0.3c0.3,0.3,0.5,0.6,0.8,0.9c0,0,0,0.1,0.1,0.1l0.3-0.4c0.2-0.3,0.5-0.7,0.9-1.2c0.3,0.3,0.6,0.6,0.8,1
	l0.1,0.1c0,0,20.9-28.9,24.2-37c0.8-1.7,1.7-3.3,2.8-4.8c4.3-5.9,11.5-12.7,14.9-15.8l1-0.9l0,0l0,0c0.5-0.5,0.8-0.7,0.8-0.7
	l0.4,0.8c0,0.1,0,0.1,0.1,0.2c0.9,2,2.6,6.3,1.7,7.5c-1.2,1.6-4.4,17.3-4.4,17.3s-4.4,6.9-1.5,17.5s14.6,14.3,17.2,14.1
	c1.7-0.1,16.5,6,26.9,10.5l0,0l2.6,1.1l0,0l2.6,1.1l4,1.8l0,0l0.2,0.1c0.3,0.2,0.7,0.3,1,0.4l0.2-0.3l0.1-0.1l1,0.5l-1-0.6
	c0.4-0.6,1.1-1.6,2-3.1c0-0.1,0.1-0.2,0.2-0.3l0.3-0.5l0.5-0.8c0-0.1,0.1-0.2,0.2-0.3l0.5-0.9c0,0,0.1-0.1,0.1-0.1
	c0.7-1.2,1.4-2.5,2-4c0.1-0.2,0.2-0.4,0.3-0.6l2.6-0.2l0,0l1.8-0.1l0,0l1-0.1l0,0l1.3-0.1l0.6,0.1l24.6,1.8l0,0l1.8,0.1
	c9.3,0.8,17.5-6.1,18.3-15.4C512.8,353.5,512.8,353,512.8,352.5z"/>
<path class="st3" d="M452.5,379.6c0,0,18.7-25.4,5.9-39.5l-30.4,9.2l1.6,11.1C429.6,360.5,442.8,375.7,452.5,379.6z"/>
<path class="st4" d="M428,349.4l1.6,11.1c0,0,9.3,10.7,18,16.4c1.5,1,3.2,1.9,4.9,2.6c0,0,0.1-0.1,0.3-0.4c0,0,0-0.1,0.1-0.1
	c2.3-3.3,4.2-6.8,5.9-10.4c0.6-1.4,1.2-2.8,1.8-4.3c2-5.7,3.2-12.1,1.5-17.8c-0.6-2.1-1.7-4.1-3.1-5.8c-0.1-0.1-0.2-0.3-0.4-0.4
	c-0.1-0.1-0.1-0.1-0.2-0.2l-0.7,0.2l-10.3,3.1L428,349.4z"/>
<path class="st3" d="M301.1,271.4l-2.5,2.3l1.4-3.3L301.1,271.4z"/>
<path class="st4" d="M301.1,271.4l-2.5,2.3l1.4-3.3L301.1,271.4z"/>
<path class="st5" d="M461.7,342.5c0,0-13.2,14.4-5.2,23.5c0,0,3.9,1.1,9.5,2.2c13.1,2.4,35.9,4.4,43.2-8.7
	c10.4-18.8-39.4-17.1-39.4-17.1l-3.8,0.1L461.7,342.5z"/>
<path class="st4" d="M461.7,342.5c0,0-13.2,14.4-5.2,23.5c0,0,3.9,1.1,9.5,2.2l1.7-0.1c-2.2-0.8-4.2-2-5.8-3.7
	c-2.1-2.2-3.6-5.5-1.9-10.1c1-2.6,2.1-5.2,3.4-7.7c0.7-1.5,1.6-2.9,2.7-4.2L461.7,342.5z"/>
<path class="st6" d="M439.4,370.4l4.4-0.4l14.9-1.3l7.6-0.7c-2.2-0.8-4.2-2-5.8-3.7c-2.1-2.2-3.6-5.5-1.9-10.1
	c1-2.6,2.1-5.2,3.4-7.7c2.1-4,3.8-5.5,4.7-5.6s-4.4-0.5-7-0.7h-0.1c-0.7-0.1-1.2-0.1-1.2-0.1l-0.7,0.2l-10,2.9l-0.3,0.2
	C445,345.2,430.3,356.7,439.4,370.4z"/>
<path class="st7" d="M324.3,375.9l-15.4,35.1c0,0-2.7,2.8-5.1,5.8c0,0.1-0.1,0.1-0.1,0.2l-0.6,0.8c-0.1,0.1-0.1,0.1-0.2,0.2
	c0,0,0,0,0,0c-1,1.2-1.9,2.6-2.6,4.1c-0.4,1-1,2-1.7,2.9c-0.9,1.1-1.8,2.2-2.9,3.1c0,0-0.1,0.1-0.1,0.1c0,0-4,5.7-7.2,9.5
	c-0.1,0.1-0.1,0.1-0.1,0.2c-0.8,1-1.7,1.9-2.7,2.8c-0.8,0.7-1.6,1.4-2.3,2.3l-0.3,0.4c-2.5,3-5.1,6.9-5.1,6.9l-9.2,10.4l-9.3,10.5
	l-0.9,1l-0.7,0.7l-0.3,0.3l0,0l-0.8,0.9c0,0,0,0-0.1,0.1l-1.3,1.3l-0.1,0.1c-0.5,0.5-1,1.1-1.6,1.6c-0.3,0.4-0.7,0.7-1.1,1.1
	l-1.1,1.2c-0.5,0.5-1,1-1.5,1.5c-0.3,0.3-0.6,0.6-0.9,0.9l-0.7,0.7c-0.6,0.6-1.3,1.3-1.9,1.9l-0.2,0.2l-1.2,1.2l-1.1,1l-0.5,0.4
	l-0.7,0.7l-0.4,0.4c-0.1,0.1-0.3,0.3-0.4,0.4c-0.2,0.2-0.4,0.4-0.6,0.5l-0.3,0.2c-1.2,1.1-2.5,2.2-3.8,3.2c-1.3,0.9-2.5,1.9-3.7,3
	l0,0l-0.6,0.5c-0.2,0.2-0.4,0.4-0.6,0.6c-1.5,1.5-2.9,3.1-4,4.3c-0.1,0.1-0.2,0.2-0.3,0.4c0,0,0,0-0.1,0c-0.8,0.9-1.3,1.6-1.6,2
	l-0.1,0.2l0,0l0,0l0,0l-2.6,2l-1.2,0.9l-2.4,1.9l-0.7,0.5c-2,1.6-4.1,3.2-5.8,4.6l-0.6,0.5l-0.1,0l-0.5,0.4l-0.1,0
	c-0.4,0.3-0.7,0.6-0.9,0.8l-0.1,0.1l-0.5,0.5c-0.3,0.3-0.6,0.6-0.9,0.9c-1.9,3-4.1,5.8-6.5,8.5c-0.4,0.4-0.8,0.8-1.3,1.2
	c-0.9,0.9-1.9,1.6-3,2.2c-0.6,0.3-1.2,0.6-1.7,1c12.6-37.1,29.7-82.7,49.8-133.2c1.4-3.6,2.9-7.3,4.4-10.9c1.7-4.1,3.3-8.3,5-12.5
	l0.1-0.4l0.7-1.8c6.4-15.8,13.1-32,20-48.5c0.1-0.3,0.3-0.6,0.4-1l-0.4-0.5l0.8-0.4c1.7-4,3.3-7.9,5-11.9c0.2-0.4,0.4-0.9,0.5-1.3
	c0.2-0.6,0.5-1.1,0.7-1.7c0.1-0.2,0.1-0.4,0.2-0.5c0.1-0.3,0.3-0.7,0.4-1c1.7-4,3.4-8,5.1-11.9l17.6,19.7l0.7,0.8l12.3,13.5l0.8,0.8
	l3.8,4.2l2.1,2.3l1,1.1l12.3,13.6l0.2,0.2l0.6,0.6L324.3,375.9z"/>
<path class="st5" d="M412.4,154.7l-2.5,34.5c0,0,29.5,14,30.4,8.9c0.4-2,4.2-5.3,8.8-8.6c7.3-5.2,16.4-10.4,16.4-10.4
	s-29.7-44.8-33.2-35.4c-1.3,3.4-4.3,5.8-7.6,7.5C420.8,153,416.7,154.2,412.4,154.7z"/>
<path class="st4" d="M432.3,143.7c-1.3,3.4-1,4.2-4.3,5.9c-0.8,10.1-0.7,22.1,6.7,30.2c4,4.3,8.9,7.7,14.4,9.7
	c7.3-5.2,16.4-10.4,16.4-10.4S435.8,134.4,432.3,143.7z"/>
<path class="st5" d="M437.5,125.4c-15.4,14.3-16.4,38.3-2.1,53.8c14.3,15.4,38.3,16.4,53.8,2.1l0,0l0.4-0.4
	c15.3-14.4,16.1-38.5,1.7-53.8C476.9,111.8,452.8,111,437.5,125.4L437.5,125.4z"/>
<path class="st4" d="M326.2,366.6c-1.3,1.6-3.4,1.3-6.7-3.1c-1.6-1.9-3.3-3.7-5.1-5.4l0,0c-0.3-0.3-0.7-0.6-1-1
	c-3.7-3.4-8.5-7.5-13.7-12.2l-0.3-0.3c-2.3-2.1-4.7-4.3-7.1-6.5l-1.4-1.4l0,0c-3.3-3.1-6.5-6.5-9.6-10l-0.1-0.1
	c-1.1-1.3-2.3-2.6-3.4-3.8c0.1-0.3,0.3-0.6,0.4-1l-0.4-0.5l0.8-0.4c1.7-4,3.3-7.9,5-11.9c0.2-0.4,0.4-0.9,0.5-1.3
	c0.2-0.6,0.5-1.1,0.7-1.7c0.1-0.2,0.1-0.4,0.2-0.5l1.2,1.5c1.9,2.4,3.8,4.8,5.8,7.1l0.2,0.2c1.1,1.3,2.2,2.7,3.3,4
	c0,0,0.1,0.1,0.1,0.1c1.2,1.5,2.5,2.9,3.8,4.3l0.7,0.8c1.4,1.5,2.7,2.9,4.1,4.2c3.2,3.1,6.4,6,9.3,8.4c0.3,0.2,0.5,0.5,0.8,0.7
	c2.6,2.1,4.9,4,7,5.5l0.9,0.7l1.2,0.8c2.7,1.9,4.4,3,4.4,3s0.1,1.4,0.3,3.4c0.1,1.2,0.1,2.6,0.2,4
	C328.2,358.9,327.9,364.5,326.2,366.6z"/>
<path class="st8" d="M326.2,366.6c-1.3,0.8-3.2-0.1-6-3.7c-1.6-2-3.4-3.9-5.3-5.6l-0.1-0.1l-1-0.9c-3.6-3.3-8.1-7.2-13-11.6
	c-0.1-0.1-0.2-0.2-0.3-0.3c-2.7-2.4-5.5-5-8.3-7.7l0,0c-0.5-0.4-0.9-0.9-1.4-1.4c-3-2.9-6-6-8.9-9.2l-0.1-0.1l-3.7-4.2l-0.4-0.5
	l0.8-0.4c1.7-4,3.3-7.9,5-11.9c0.2-0.4,0.4-0.9,0.5-1.3c0.2-0.6,0.5-1.1,0.7-1.7c0.1-0.2,0.1-0.4,0.2-0.5c0.1-0.3,0.3-0.7,0.4-1
	c2.1,2.6,4.2,5.2,6.4,7.9c0,0,0,0,0.1,0.1l1,1.2c1.1,1.4,2.3,2.8,3.5,4.1c1,1.2,2.1,2.4,3.1,3.6c0.2,0.2,0.4,0.4,0.6,0.6
	s0.5,0.5,0.7,0.8c4.2,4.5,8.6,8.6,13.3,12.6c0.3,0.2,0.5,0.5,0.8,0.7l0,0c2.5,2.1,4.8,3.9,6.7,5.3c0.4,0.3,0.7,0.5,1.1,0.8l1.2,0.8
	c2.8,2,4.6,3.1,4.6,3.1s0.2,2.3,0.4,5.4c0,1.3,0.1,2.7,0.1,4.1C328.8,360.4,328.2,365.4,326.2,366.6z"/>
<path class="st4" d="M444.3,224.9L341.2,348.5l-8.9,10.7l-1.3,1.6c-0.6-1.7-1.3-3.5-2.2-5.1c-0.2-0.4-0.5-0.9-0.7-1.4
	c-1.5-3.1-3.6-5.9-6.1-8.2c-0.4-0.3-0.8-0.6-1.1-0.9l-0.6-0.4c-0.6-0.4-1.2-0.7-1.9-1c-2.3-1-4.4-2.5-6.1-4.3l0,0l-0.8-0.7
	c-4.4-4.4-8.4-9.2-12-14.2c-0.2-0.3-0.5-0.6-0.6-0.9c-1.2-1.6-1.9-2.6-1.9-2.6s-0.8-0.9-2-2.3c-1-1.2-2.3-2.6-3.7-4.1
	c-2.2-2.5-4.5-4.7-7.1-6.8c0.2-0.6,0.5-1.1,0.7-1.7c0.1-0.2,0.1-0.4,0.2-0.5c0.1-0.3,0.3-0.7,0.4-1c1.7-4,3.4-8,5.1-11.9
	c2.7-6.4,5.5-12.7,8.2-19l1.4-3.3l4.1-9.4l1.6-3.6l1.2-2.7c4.3-9.7,8.5-19.3,12.6-28.6l65.3-58l7.9-3.7l7.6-3.6l5.4,1.6l0.8,0.2
	l5.3,1.5h0.1l1.3,0.4l2.6,0.8l1.3,17.3v0.1v0.5l2.4,3.4l1.5,2.1l0.6,0.3l2.7,1.1l0,0l0.8,0.3l0.3,0.1l0,0l2.4,0.9l0,0l6.7,2.6l1.6,5
	l1,3.2l0.5,1.7l0.5,1.3L444.3,224.9z"/>
<path class="st6" d="M445.7,223.6L341.3,348.7l-9,10.8l-0.1-0.3c-1-2.6-2.1-5.2-3.5-7.6c-0.3-0.4-0.5-0.9-0.8-1.3
	c-1.3-2.2-3-4.2-5-5.8l0,0c-0.4-0.3-0.8-0.6-1.1-0.8c-0.3-0.2-0.6-0.4-0.9-0.5c-0.4-0.2-0.8-0.4-1.2-0.5c-2.4-1.1-4.5-2.6-6.4-4.5
	l-0.8-0.8c-3-3-5.8-6.2-8.4-9.5c-1.4-1.8-2.6-3.4-3.6-4.7l-0.6-0.9c-0.2-0.2-0.3-0.5-0.5-0.7c-0.8-1.1-1.2-1.7-1.2-1.7
	s-3-3.7-6.4-7.2c0,0,0-0.1-0.1-0.1c-1.7-1.9-3.6-3.7-5.6-5.4c-0.4-0.3-0.9-0.7-1.4-0.9c0.1-0.2,0.1-0.4,0.2-0.5
	c0.1-0.3,0.3-0.7,0.4-1c1.7-4,3.4-8,5.1-11.9c2.7-6.4,5.5-12.7,8.2-19l1.4-3.3l4.1-9.4l1.6-3.6l1.2-2.7c4.3-9.7,8.5-19.3,12.6-28.6
	c0,0,0-0.1,0-0.1l66.6-59.2l6.7-3.2l8.7-4.1l5.2,1.5l0.8,0.2l4.3,1.2l1,0.3l1.2,0.3l3,0.9l1.3,17.9l0.7,1l0.1,0.2l0.1,0.2l0,0l2.1,3
	l0,0l0.8,1.2l3.3,1.3l0,0l4.2,1.6l0,0l6.1,2.4l2.1,6.5l0.4,1.2l0.5,1.7l0.3,0.8l0.2,0.5L445.7,223.6z"/>
<path class="st4" d="M430.2,198.6c0,0-13.1,0.6-14.6,2.2s-4.8,5.1-4.8,5.1l-5.2,13.5c0,0-9.5,13.5-11.9,15.8s-20,26.1-20,26.1
	l-28.3,35.3l-37.3,46.1l-16.8,3.8l-0.6-13.4l67.5-81l13.2-16.1c0,0,25.1-27.4,28-30s11.4-8.1,11.4-8.1s5.6-8,1.4-15.9
	s0.8,0.1,0.8,0.1l6.3,0.9l1.6,4.4C420.9,187.4,431.7,193.7,430.2,198.6z"/>
<path class="st9" d="M431.5,198.6c0,0-13.1,0.6-14.6,2.2s-4.8,5.1-4.8,5.1l-5.1,13.5c0,0-9.5,13.5-12,15.8s-20,26.1-20,26.1
	l-28.3,35.3l-37.3,46.1l-16.8,3.8l-0.6-13.3l67.5-81l13.2-16.1c0,0,25.1-27.4,28-30s11.4-8.1,11.4-8.1s5.6-8,1.4-15.9
	s0.8,0.1,0.8,0.1l6.3,0.9l1.6,4.4C422.2,187.5,433,193.7,431.5,198.6z"/>
<path class="st4" d="M447.6,191.4c0,0,0.2,1.6-4.3,6.2s-12,17.6-12,17.6s-2.9-20-9.4-25.2L447.6,191.4z"/>
<path class="st6" d="M449,190.1c0,0,0.2,1.6-4.3,6.2s-12,17.6-12,17.6s-2.9-20-9.4-25.3L449,190.1z"/>
<path class="st4" d="M420.5,154.6l0.9,34.9c0,0-24.6-7.3-28.9-7.2s19.1-25.5,19.1-25.5L420.5,154.6z"/>
<path class="st6" d="M421.3,152.6l0.9,34.9c0,0-24.6-7.3-28.9-7.2s19.1-25.5,19.1-25.5L421.3,152.6z"/>
<path class="st4" d="M447,190.6c0,0,3,1.1,1.8,6s0.9,9.9,0.9,9.9S466,231,464,234.4l8.6,10.5c0,0,2.8,4-4.3,11.1s-6,9.7-6,9.7
	s-3.5,10.8-7.5,14s-2.7,8.4-2.7,8.4l-51.7,20.6c0,0-16.2,14-19.4,22s-24,36.6-24,36.6s-1.5-2.5-2.8-1.1s-14.4,18.1-14.4,18.1
	s-5.4,6.4-6.5,9.5s-11.9,13.5-11.9,13.5l-6.2,9.3c0,0-14.1,4.8-19-3.3s10.3-45.1,10.3-45.1l21.5-34.5l22.7-32.4l17.6-19.6l40-42.2
	l24.4-30.2C432.6,209.4,443.5,190.9,447,190.6z"/>
<path class="st3" d="M449,190.1c0,0,3,1.1,1.8,5.9s0.9,9.9,0.9,9.9s16.4,24.5,14.3,27.9l8.6,10.5c0,0,2.8,4-4.3,11.1s-6,9.7-6,9.7
	s-3.5,10.8-7.5,14s-2.7,8.4-2.7,8.4l-51.7,20.6c0,0-16.1,14.1-19.4,22.1s-24,36.6-24,36.6s-1.5-2.5-2.8-1.1s-14.4,18.1-14.4,18.1
	s-5.4,6.4-6.5,9.5s-11.9,13.5-11.9,13.5l-6.2,9.3c0,0-14.1,4.8-19-3.3s10.3-45.1,10.3-45.1l21.5-34.5l22.7-32.4l17.6-19.6l40-42.2
	l24.4-30.2C434.7,208.8,445.5,190.2,449,190.1z"/>
<path class="st4" d="M428,349.4l1.6,11.1c0,0,9.3,10.7,18,16.4l5.2,2.2l1,0.5l-1-0.5c-4.8-2.9-7.6-5.9-9-9.1
	c-5.7-12.6,11.2-26.3,15.1-29.2c0.4-0.3,0.6-0.5,0.8-0.6h0h-0.1c-0.3,0.1-0.7,0.1-1,0.1c-0.3,0-0.6,0-0.9,0l0,0l-10,2.9l-0.3,0.2
	L428,349.4z"/>
<path class="st3" d="M452,283.4l2.1,4.1l-6.3,6.7c0,0,4.2,3.3,0.6,8.6s-4,9.1-4,9.1s0.6,11.5-3.7,16l1.2,6.3c0,0,10.7,7.3,16.4,6
	c0,0-34.2,23.8-5.9,39.5c0,0-34.4-15-37-14.8s-14.2-3.4-17-13.9s1.6-17.4,1.6-17.4s3.2-15.6,4.4-17.1s-2.1-8.3-2.1-8.3l15.1-32.7
	L452,283.4z"/>
<path class="st4" d="M421.3,152.6L421.3,152.6L421.3,152.6l-1.5,2.1l0,0l-5.8,8.4l-1,1.4l-1.4,2.1l0,0l-2.6,3.7L398.2,181l-1.8,1.8
	l-17.2,17l-37.9,37.6l-27.6,16c0,0-4,2-8,4.1l1.2-2.7c4.3-9.7,8.5-19.3,12.6-28.6c0,0,0-0.1,0-0.1c15.9-35.6,31.1-68.4,45-97.1
	c0.2,0.1,0.5,0.2,0.7,0.4c3.1,2.1,6.8,4.2,8.2,5l0.6,0.3c0.6,1,1.3,1.9,2,2.8c1.1,1.4,2.6,2.8,3.8,2.8c2.4,0,13.6,7.2,15.3,9
	c0.7,0.7,1.6,1.3,2.5,1.7c2.6,1.5,6.1,2.9,6.1,2.9l8.2,1.4l0.3,0.1h0.1c2.2,0.3,7-1.8,8.5-2.5l0,0l0.4-0.2l0,0L421.3,152.6z"/>
<path class="st3" d="M421.3,152.6L421.3,152.6L421.3,152.6L421.3,152.6l-1.8,2.2l-6.6,7.9l-1.1,1.3l0,0l-0.1,0.1l-4,4.8L396,180.4
	l-1.8,1.8l-13.2,13.1L340,235.8l-27.6,16l-5.5,2.8c4.3-9.7,8.5-19.3,12.6-28.6c0,0,0-0.1,0-0.1c15.9-35.6,31.1-68.4,45-97.1
	c0.1-0.2,0.1-0.3,0.2-0.5c3.8,2.4,8,4.8,8,4.8s0.3,0.4,0.7,1.1c0.8,1.1,1.6,2.2,2.6,3.1c0.6,0.7,1.5,1.2,2.5,1.3
	c2.4,0,13.6,7.2,15.3,9c1.2,1,2.5,1.9,4,2.5c2.3,1.2,4.6,2.1,4.6,2.1l8.5,1.5c2.3,0.4,8.5-0.9,10-1.2
	C421.1,152.6,421.1,152.6,421.3,152.6L421.3,152.6L421.3,152.6L421.3,152.6z"/>
<path class="st4" d="M257.8,374.5l-1-1.1l0.1-0.4C257.2,373.6,257.5,374,257.8,374.5z"/>
<path class="st4" d="M255.8,386.2l-8.3,10.6c1.4-3.6,2.9-7.3,4.4-10.9L255.8,386.2z"/>
<path class="st7" d="M296.2,317.9l-0.8,0.5l-0.6,0.4l-12.8,7.5l-0.1-0.1l-3.7-4.2l-0.4-0.5l0.8-0.4l12.7-6.4l0.8-0.4l0.9-0.4
	C294,315.1,295.1,316.5,296.2,317.9z"/>
<path class="st4" d="M460.4,258.8c0,0-7.1-3-11.5-1.1S460.4,258.8,460.4,258.8z"/>
<path class="st4" d="M440,307.3c0,0-2.2,16-8.5,16.2S440,307.3,440,307.3z"/>
<path class="st4" d="M310,299.6c0-1.4,9-39.7,3.4-41.5L310,299.6z"/>
<path class="st4" d="M437.5,125.4c-4.6,4.3-8.1,9.6-10.1,15.5l0.2,0.2c2,1.4,4.9,0.4,7.5,0.6c3.2,0.2,5.9,2.4,6.7,5.5
	c0.7,3.3-0.5,6.6-3.1,8.7c4.6-2.6,8.3-6.6,12.9-9.2s10.8-3.5,14.2,0c1.5,1.5,2.5,3.9,4.7,3.9c1.3,0,2.6-0.9,3.9-1.1
	c6.5-1.3,11.7,8.5,12.5,13.7c0.8,5,0.9,12,2.7,17.7c15.3-14.4,16.1-38.5,1.7-53.8C476.9,111.7,452.8,111,437.5,125.4L437.5,125.4
	L437.5,125.4z"/>
<path class="st10" d="M475.1,148.8c-1.3,0.3-2.5,1.2-3.9,1.1c-2.2,0-3.3-2.4-4.7-3.9c-3.4-3.5-9.6-2.6-14.2,0s-8.3,6.6-12.9,9.2
	c2.6-2.1,3.8-5.4,3.1-8.7c-0.8-3.1-3.5-5.3-6.7-5.5c-2.5-0.2-5.5,0.8-7.5-0.6s-1.9-4.7-0.6-7.1s3.4-4.2,4.9-6.4
	c2.9-4.2,3.7-9.3,6-13.9c2.8-5.5,7.5-9.8,13.2-12c3-1.2,6.2-1.7,9.2-2.8c4.6-1.7,8.7-4.9,13.4-6.2c7.9-2.2,16.6,1.9,19.5,9.1
	c1.4,3.4,1.6,7.4,3.2,10.7c2.1,4.5,6.4,7.4,10.2,10.6s7.5,7,7.8,12.1c0.4,5.8-3.9,11.5-4,17.4c0,2.5,0.7,4.8,0.8,7.3
	s-0.5,5.2-2.5,6.8c-2.6,2.1-7,1.7-8.5,4.7c-0.4,0.9-0.5,1.9-0.5,2.9c-0.3,5.2-1.8,10.2-4.4,14.6c-7.8-4.5-7.1-17.7-8.4-25.6
	C486.8,157.3,481.6,147.5,475.1,148.8z"/>
<path class="st4" d="M430.1,277.8c0,0-26.7,24.8-27.3,29.5S430.1,277.8,430.1,277.8z"/>
<g class="st11">
	<path d="M502.9,168.1c1.4-2.9,5.6-2.6,8.3-4.5c-0.4,0.9-1,1.7-1.8,2.3c-1.9,1.5-4.8,1.7-6.8,2.9
		C502.7,168.5,502.8,168.3,502.9,168.1z"/>
	<path d="M441.6,152.6c4.5-2.6,8.2-6.5,12.6-9s10.8-3.5,14.2,0c1.5,1.5,2.5,3.9,4.7,3.9c1.3,0,2.6-0.9,3.9-1.1
		c6.5-1.3,11.7,8.5,12.5,13.7c1.3,7.8,0.7,20.5,7.9,25.3c-0.4,1-0.9,1.9-1.4,2.8c-7.8-4.5-7.1-17.7-8.4-25.6
		c-0.8-5.2-6-14.9-12.5-13.7c-1.3,0.3-2.5,1.2-3.9,1.1c-2.2,0-3.3-2.4-4.7-3.9c-3.4-3.5-9.6-2.6-14.2,0s-8.3,6.6-12.9,9.2
		C440.3,154.5,441,153.6,441.6,152.6z"/>
	<path d="M429.7,130.9c-1.3,2.4-1.4,5.6,0.6,7.1s4.9,0.4,7.5,0.6c3.2,0.2,5.9,2.4,6.8,5.5c0.6,3.1-0.4,6.3-2.8,8.4
		c1-1.8,1.3-3.9,0.8-5.9c-0.8-3.1-3.5-5.3-6.7-5.5c-2.5-0.2-5.5,0.8-7.5-0.6s-1.9-4.7-0.6-7.1c0.8-1.4,1.7-2.6,2.8-3.8
		C430.2,130,429.9,130.4,429.7,130.9z"/>
	<path d="M440.5,110.5c-2.3,4.5-3,9.7-6,13.9c-0.6,0.9-1.3,1.6-1.9,2.4c2.9-4.2,3.7-9.3,5.9-13.8c1-2,2.3-3.9,3.9-5.6
		C441.7,108.4,441.1,109.5,440.5,110.5z"/>
</g>
<circle class="st12" cx="512.8" cy="358.4" r="0.4"/>
<path class="st13" d="M737.9,362.2c-4.4,10.5-7.3,7.8-11,6.3s-6.6-1.4-2.3-11.8c1-2.3,2-4.5,3.3-6.6c4.5-0.4,8.9-0.4,13.4-0.1
	C740.7,354.2,739.5,358.3,737.9,362.2z"/>
<path class="st13" d="M745.7,429.8c-2.6-0.4-5.1-0.9-7.7-1.5c-2.1-0.5-4.2-1.1-6.3-1.7c2.3-10.8,6.1-11.6,9.9-10.8
	S747.8,418.9,745.7,429.8z"/>
<ellipse transform="matrix(0.6039 -0.7971 0.7971 0.6039 107.9858 820.9385)" class="st14" cx="880" cy="301.8" rx="17" ry="9.2"/>
<path class="st15" d="M735.4,336.2c-0.9,4-2.1,2.6-3.8,2.2s-3.3,0.3-2.4-3.7s5.8-10.6,5.8-10.6S736.3,332.3,735.4,336.2z"/>
<path class="st15" d="M777.7,274.8c-0.9,4-2.1,2.6-3.8,2.2s-3.3,0.3-2.4-3.7s5.8-10.6,5.8-10.6S778.6,270.9,777.7,274.8z"/>
<path class="st15" d="M817,300.7c-0.9,4-2.1,2.6-3.8,2.2s-3.3,0.3-2.4-3.7s5.8-10.6,5.8-10.6S817.9,296.8,817,300.7z"/>
<path class="st15" d="M827.9,337.1c-0.9,4-2.1,2.6-3.8,2.2s-3.3,0.3-2.4-3.7s5.8-10.6,5.8-10.6S828.8,333.1,827.9,337.1z"/>
<path class="st15" d="M723.9,745.9l-0.5,2.2c-12.5,2.8-78.7-20.3-73.4-30.8L723.9,745.9z"/>
<path class="st15" d="M723.9,747.9l-0.5,0.2l0.5-2.2c19-5.5,95.4,14.1,95.4,14.1C819.5,771.9,720.1,757.7,723.9,747.9z"/>
<path class="st16" d="M1051.8,623.3c0,2.6-0.3,4.7-0.7,4.7s-0.7-2.1-0.7-4.7s0.4-1.4,0.7-1.4S1051.8,620.7,1051.8,623.3z"/>
<path class="st16" d="M1055.4,626.4c-2.3,1.2-4.3,2-4.4,1.7s1.5-1.6,3.8-2.8s1.4-0.3,1.6,0S1057.7,625.2,1055.4,626.4z"/>
<path class="st16" d="M1001,623.3c0,2.6,0.3,4.7,0.7,4.7s0.7-2.1,0.7-4.7s-0.4-1.4-0.7-1.4S1001,620.7,1001,623.3z"/>
<path class="st16" d="M997.4,626.4c2.3,1.2,4.3,2,4.4,1.7s-1.5-1.6-3.8-2.8s-1.4-0.3-1.6,0S995.2,625.2,997.4,626.4z"/>
<ellipse class="st0" cx="1026.4" cy="707.3" rx="59" ry="9"/>
</svg>
